<?xml version="1.0" encoding="iso-8859-1"?>
<!-- Generator: Adobe Illustrator 19.0.0, SVG Export Plug-In . SVG Version: 6.00 Build 0)  -->
<svg version="1.1" id="Layer_1" xmlns="http://www.w3.org/2000/svg" xmlns:xlink="http://www.w3.org/1999/xlink" x="0px" y="0px"
	 viewBox="0 0 512 512" style="enable-background:new 0 0 512 512;" xml:space="preserve">
<path style="fill:#C69C6D;" d="M256,207.949c-26.538,0-48.051,21.513-48.051,48.051c0,26.538,21.513,48.051,48.051,48.051
	c26.538,0,48.051-21.513,48.051-48.051S282.538,207.949,256,207.949z M256,280.026c-13.269,0-24.026-10.757-24.026-24.026
	c0-13.269,10.757-24.026,24.026-24.026c13.269,0,24.026,10.757,24.026,24.026C280.026,269.269,269.269,280.026,256,280.026z"/>
<path style="fill:#8C6239;" d="M256,207.949c-26.538,0-48.051,21.513-48.051,48.051c0,26.538,21.822,48.051,48.051,48.051v-24.184
	c-13.639,0-24.026-10.677-24.026-23.946c0-13.269,10.387-23.946,24.026-23.946V207.949L256,207.949"/>
<path style="fill:#C69C6D;" d="M256,55.785C145.424,55.785,55.785,145.424,55.785,256S145.424,456.215,256,456.215
	S456.215,366.576,456.215,256S366.576,55.785,256,55.785z M256,408.164c-84.037,0-152.164-68.126-152.164-152.164
	S171.963,103.836,256,103.836S408.164,171.963,408.164,256S340.038,408.164,256,408.164z"/>
<path style="fill:#8C6239;" d="M256,408.164c-83.934,0-152.164-68.126-152.164-152.164S172.066,103.836,256,103.836V55.785
	C145.836,55.785,55.785,145.424,55.785,256S145.836,456.215,256,456.215V408.164z"/>
<path d="M256,287.894c-17.587,0-31.894-14.308-31.894-31.894s14.308-31.894,31.894-31.894s31.894,14.308,31.894,31.894
	S273.587,287.894,256,287.894z M256,239.844c-8.909,0-16.156,7.248-16.156,16.156s7.248,16.156,16.156,16.156
	s16.156-7.248,16.156-16.156C272.156,247.091,264.909,239.844,256,239.844z"/>
<path d="M328.393,264.393v-15.738h-16.972c-1.285-9.749-5.078-18.718-10.728-26.222l11.836-11.837l-11.129-11.129l-11.835,11.837
	c-7.504-5.65-16.473-9.443-26.222-10.728v-16.97h-15.738v17.105c-9.345,1.412-17.938,5.147-25.173,10.595l-11.836-11.836
	l-11.129,11.129l11.837,11.837c-5.65,7.504-9.443,16.472-10.728,26.222h-16.972v15.738h17.105
	c1.412,9.345,5.147,17.938,10.595,25.173l-11.837,11.837l11.129,11.128l11.836-11.836c7.235,5.447,15.828,9.181,25.173,10.595
	v17.102h15.738v-16.97c9.749-1.285,18.718-5.078,26.222-10.728l11.836,11.836l11.129-11.128l-11.836-11.837
	c5.447-7.235,9.181-15.828,10.595-25.173H328.393L328.393,264.393z M256,296.183c-22.157,0-40.183-18.026-40.183-40.183
	s18.026-40.183,40.183-40.183s40.183,18.026,40.183,40.183S278.157,296.183,256,296.183z"/>
<rect x="247.607" y="103.869" width="15.738" height="24.131"/>
<path d="M256,95.967c-88.242,0-160.033,71.79-160.033,160.033S167.758,416.033,256,416.033S416.033,344.242,416.033,256
	S344.242,95.967,256,95.967z M400.045,264.393c-1.94,33.661-15.47,64.263-36.652,87.87l-11.22-11.221l-11.129,11.128l11.221,11.221
	c-23.853,21.403-54.844,35.001-88.919,36.717V384h-15.738v16.045c-33.661-1.94-64.263-15.47-87.87-36.652l11.221-11.221
	l-11.129-11.128l-11.22,11.221c-21.183-23.607-34.712-54.209-36.652-87.87H128v-15.738h-16.109
	c1.716-34.075,15.315-65.067,36.717-88.919l11.22,11.221l11.129-11.129l-11.221-11.221c23.607-21.183,54.209-34.712,87.87-36.652
	V128h15.738v-16.109c34.075,1.716,65.067,15.315,88.919,36.717l-11.221,11.221l11.129,11.129l11.22-11.221
	c21.402,23.853,35.001,54.844,36.717,88.919H384v15.738H400.045z"/>
<path d="M472.131,264.393v-15.738h-8.191c-1.801-51.653-22.515-98.575-55.422-134.045l5.946-5.946l-11.129-11.128l-5.946,5.945
	c-35.471-32.906-82.392-53.622-134.045-55.423v-8.19h-15.738V48.1c-51.24,2.044-97.766,22.699-132.996,55.382l-5.945-5.945
	l-11.129,11.128l5.946,5.946c-32.908,35.471-53.622,82.392-55.423,134.045h-8.191v15.738H48.1
	c2.044,51.24,22.699,97.766,55.382,132.996l-5.946,5.946l11.129,11.128l5.945-5.945c35.23,32.683,81.757,53.338,132.996,55.382
	v8.231h15.738v-8.19c51.653-1.801,98.575-22.515,134.045-55.422l5.946,5.945l11.129-11.128l-5.946-5.946
	c32.683-35.23,53.338-81.757,55.382-132.996h8.232V264.393z M256,448.347c-106.061,0-192.346-86.287-192.346-192.347
	S149.939,63.653,256,63.653S448.346,149.939,448.346,256S362.061,448.347,256,448.347z"/>
<g>
	<polygon style="fill:#603813;" points="271.738,0 240.262,0 240.262,15.738 247.607,15.738 247.607,31.475 263.344,31.475 
		263.344,15.738 271.738,15.738 	"/>
	<polygon style="fill:#603813;" points="103.002,91.874 91.577,80.448 97.339,74.687 86.21,63.558 63.558,86.21 74.688,97.339 
		80.449,91.578 91.873,103.001 	"/>
	<polygon style="fill:#603813;" points="31.475,248.656 15.738,248.656 15.738,240.262 0,240.262 0,271.738 15.738,271.738 
		15.738,264.393 31.475,264.393 	"/>
	<polygon style="fill:#603813;" points="103.002,420.126 91.873,408.999 80.449,420.422 74.688,414.661 63.558,425.79 
		86.21,448.442 97.339,437.314 91.577,431.552 	"/>
	<polygon style="fill:#603813;" points="264.393,496.262 264.393,480.525 248.656,480.525 248.656,496.262 240.262,496.262 
		240.262,512 271.738,512 271.738,496.262 	"/>
	<polygon style="fill:#603813;" points="437.313,414.661 431.551,420.422 420.127,408.999 408.998,420.126 420.423,431.552 
		414.661,437.314 425.79,448.442 448.442,425.79 	"/>
	<polygon style="fill:#603813;" points="496.262,240.262 496.262,248.656 480.525,248.656 480.525,264.393 496.262,264.393 
		496.262,271.738 512,271.738 512,240.262 	"/>
	<polygon style="fill:#603813;" points="448.442,86.21 425.79,63.558 414.661,74.687 420.423,80.448 408.998,91.874 
		420.127,103.001 431.551,91.578 437.313,97.339 	"/>
	<rect x="247.607" y="136.393" style="fill:#603813;" width="15.738" height="39.869"/>
	
		<rect x="165.192" y="177.346" transform="matrix(-0.7071 -0.7071 0.7071 -0.7071 185.2174 447.1471)" style="fill:#603813;" width="40.047" height="15.736"/>
	<rect x="136.393" y="248.656" style="fill:#603813;" width="39.869" height="15.738"/>
	
		<rect x="177.361" y="306.76" transform="matrix(-0.7071 -0.7071 0.7071 -0.7071 85.1358 688.8322)" style="fill:#603813;" width="15.736" height="40.047"/>
	<rect x="247.607" y="335.738" style="fill:#603813;" width="15.738" height="39.869"/>
	
		<rect x="306.751" y="318.917" transform="matrix(-0.7071 -0.7071 0.7071 -0.7071 326.7668 788.9213)" style="fill:#603813;" width="40.047" height="15.736"/>
	<rect x="335.738" y="248.656" style="fill:#603813;" width="39.869" height="15.738"/>
	
		<rect x="318.933" y="165.186" transform="matrix(-0.7071 -0.7071 0.7071 -0.7071 426.9211 547.2559)" style="fill:#603813;" width="15.736" height="40.047"/>
</g>
<g>
	<rect x="423.869" y="248.656" style="fill:#FFFFFF;" width="16.787" height="15.738"/>
	
		<rect x="372.705" y="123.409" transform="matrix(-0.7071 -0.7071 0.7071 -0.7071 556.7537 493.4491)" style="fill:#FFFFFF;" width="15.738" height="16.017"/>
	<rect x="247.607" y="71.344" style="fill:#FFFFFF;" width="15.738" height="16.787"/>
	
		<rect x="123.414" y="123.54" transform="matrix(-0.7071 -0.7071 0.7071 -0.7071 131.4325 317.258)" style="fill:#FFFFFF;" width="16.017" height="15.738"/>
	<rect x="71.344" y="248.656" style="fill:#FFFFFF;" width="16.787" height="15.738"/>
	
		<rect x="123.529" y="372.56" transform="matrix(-0.7071 -0.7071 0.7071 -0.7071 -44.7917 742.5825)" style="fill:#FFFFFF;" width="15.738" height="16.017"/>
	<rect x="247.607" y="423.869" style="fill:#FFFFFF;" width="15.738" height="16.787"/>
	
		<rect x="372.566" y="372.717" transform="matrix(-0.7071 -0.7071 0.7071 -0.7071 380.5663 918.8077)" style="fill:#FFFFFF;" width="16.017" height="15.738"/>
</g>
<g>
</g>
<g>
</g>
<g>
</g>
<g>
</g>
<g>
</g>
<g>
</g>
<g>
</g>
<g>
</g>
<g>
</g>
<g>
</g>
<g>
</g>
<g>
</g>
<g>
</g>
<g>
</g>
<g>
</g>
</svg>
