<?xml version="1.0" encoding="iso-8859-1"?>
<!-- Generator: Adobe Illustrator 19.0.0, SVG Export Plug-In . SVG Version: 6.00 Build 0)  -->
<svg version="1.1" id="Layer_1" xmlns="http://www.w3.org/2000/svg" xmlns:xlink="http://www.w3.org/1999/xlink" x="0px" y="0px"
	 viewBox="0 0 512 512" style="enable-background:new 0 0 512 512;" xml:space="preserve">
<path style="fill:#E0E0E2;" d="M487.339,295.813c-4.83-6.434-12.159-10.521-20.171-11.251l-49.983-4.545V142.22
	c0-15.709-12.736-28.444-28.444-28.444h-47.407V28.444C341.333,12.736,328.598,0,312.889,0H256h-56.889
	c-15.709,0-28.444,12.736-28.444,28.444v85.331h-47.407c-15.709,0-28.444,12.736-28.444,28.444v137.798l-49.983,4.545
	c-8.012,0.728-15.341,4.817-20.171,11.251c-0.603,0.804-1.162,1.637-1.673,2.49c-1.022,1.709-1.855,3.512-2.494,5.376
	c-0.637,1.864-1.081,3.791-1.32,5.746c-0.36,2.934-0.264,5.935,0.313,8.896l33.2,170.667C55.287,502.352,66.992,512,80.608,512H256
	h175.392c13.615,0,25.321-9.648,27.921-23.013l33.2-170.667C494.05,310.424,492.17,302.245,487.339,295.813z"/>
<path style="fill:#313133;" d="M487.339,295.813c-4.83-6.434-12.159-10.521-20.171-11.251l-49.983-4.545l-28.444-2.587
	l-28.444-2.585l-101.721-9.248c-0.357-0.032-0.713-0.023-1.068-0.04c-0.503-0.027-1.001-0.057-1.506-0.059c-0.002,0-0.002,0-0.002,0
	c-0.501,0-0.999,0.032-1.5,0.057c-0.358,0.019-0.717,0.009-1.075,0.042l-101.721,9.248l-28.444,2.585l-28.444,2.587l-49.983,4.545
	c-8.012,0.728-15.341,4.817-20.171,11.251c-4.832,6.434-6.711,14.613-5.175,22.509l33.2,170.667
	C55.287,502.352,66.992,512,80.608,512H256h175.392c13.615,0,25.321-9.648,27.921-23.013l33.2-170.667
	C494.05,310.424,492.17,302.245,487.339,295.813z"/>
<path style="fill:#E0E0E2;" d="M388.741,113.776h-47.407h-28.444h-28.444H256h-28.444h-28.444h-28.444h-47.407
	c-15.709,0-28.444,12.736-28.444,28.444v137.798l28.444-2.587l28.444-2.585l101.721-9.248c0.358-0.032,0.717-0.023,1.075-0.042
	c0.501-0.027,0.999-0.057,1.5-0.057c0,0,0,0,0.002,0c0.504,0,1.003,0.032,1.506,0.059c0.357,0.019,0.711,0.008,1.068,0.04
	l101.721,9.246l28.444,2.585l28.444,2.587V142.22C417.185,126.511,404.45,113.776,388.741,113.776z"/>
<path style="fill:#222224;" d="M256,306.003v-40.505c-0.501,0.002-0.999,0.032-1.5,0.057c-0.358,0.019-0.717,0.009-1.075,0.042
	l-101.721,9.25l-28.444,2.585l-28.444,2.587l-49.983,4.544c-8.012,0.728-15.341,4.817-20.171,11.251
	c-4.832,6.434-6.711,14.613-5.175,22.509l33.2,170.667C55.287,502.352,66.992,512,80.608,512H256V306.003z"/>
<path style="fill:#C6C5CA;" d="M151.704,274.847l101.721-9.248c0.358-0.032,0.717-0.023,1.075-0.042
	c0.501-0.027,0.999-0.057,1.5-0.057V113.778h-28.444h-28.444h-28.444h-47.407c-15.709,0-28.444,12.736-28.444,28.444v137.796
	l28.444-2.587L151.704,274.847z"/>
<path style="fill:#D8143A;" d="M284.444,113.776h28.444h28.444V28.444C341.333,12.736,328.598,0,312.889,0H256v113.776H284.444z"/>
<path style="fill:#B8002B;" d="M227.556,113.776H256V0h-56.889c-15.709,0-28.444,12.736-28.444,28.444v85.331h28.444H227.556z"/>
<g>
</g>
<g>
</g>
<g>
</g>
<g>
</g>
<g>
</g>
<g>
</g>
<g>
</g>
<g>
</g>
<g>
</g>
<g>
</g>
<g>
</g>
<g>
</g>
<g>
</g>
<g>
</g>
<g>
</g>
</svg>
